<svg width="24" height="24" viewBox="0 0 24 24" fill="none" xmlns="http://www.w3.org/2000/svg">
<path d="M8.18937 16.8742C8.49097 16.8742 8.75776 16.7698 8.95496 16.5609L11.9941 13.5203L15.0333 16.5609C15.2305 16.7582 15.4857 16.8742 15.7988 16.8742C16.3904 16.8742 16.8544 16.41 16.8544 15.8182C16.8544 15.528 16.7384 15.2727 16.5412 15.0754L13.4905 12.0232L16.5412 8.95935C16.7616 8.73885 16.866 8.50674 16.866 8.22821C16.866 7.63634 16.402 7.17212 15.8104 7.17212C15.5204 7.17212 15.2769 7.26496 15.0565 7.48546L11.9941 10.5377L8.93176 7.49707C8.73456 7.28817 8.49097 7.18372 8.18937 7.18372C7.59778 7.18372 7.13379 7.63634 7.13379 8.22821C7.13379 8.51835 7.24979 8.77367 7.45858 8.97096L10.4977 12.0232L7.45858 15.087C7.24979 15.2727 7.13379 15.5396 7.13379 15.8182C7.13379 16.41 7.59778 16.8742 8.18937 16.8742Z" fill="#1A1B22"/>
</svg>
